HIERARCHY
ROOT Hips
{
	OFFSET 0.000000 87.230942 0.000000
	CHANNELS 6 Xposition Yposition Zposition Xrotation Yrotation Zrotation
	JOINT Pelvis
	{
		OFFSET 0.000000 0.000000 0.000000
		CHANNELS 3 Xrotation Yrotation Zrotation
		JOINT LeftUpLeg
		{
			OFFSET 12.017000 -9.376404 -2.439400
			CHANNELS 3 Xrotation Yrotation Zrotation
			JOINT LeftLeg
			{
				OFFSET -0.007312 -32.846973 2.110600
				CHANNELS 3 Xrotation Yrotation Zrotation
				JOINT LeftFoot
				{
					OFFSET 0.007312 -32.065170 -0.570400
					CHANNELS 3 Xrotation Yrotation Zrotation
					JOINT LeftToeBase
					{
						OFFSET 0.728300 -11.045900 13.180700
						CHANNELS 3 Xrotation Yrotation Zrotation
						End Site
						{
							OFFSET 0.000000 17.212589 0.000000
						}
					}
				}
				JOINT LeftPantLeg
				{
					OFFSET 0.002788 -16.709013 -3.143600
					CHANNELS 3 Xrotation Yrotation Zrotation
					End Site
					{
						OFFSET -0.605125 24.528742 0.000000
					}
				}
			}
			JOINT Left_Butt
			{
				OFFSET -6.630234 1.326584 -3.183700
				CHANNELS 3 Xrotation Yrotation Zrotation
				End Site
				{
					OFFSET -0.498041 20.188049 0.000000
				}
			}
		}
		JOINT RightUpLeg
		{
			OFFSET -11.717000 -9.376404 -2.439400
			CHANNELS 3 Xrotation Yrotation Zrotation
			JOINT RightLeg
			{
				OFFSET -0.003241 -32.846912 2.110600
				CHANNELS 3 Xrotation Yrotation Zrotation
				JOINT RightFoot
				{
					OFFSET 0.003241 -32.065136 -0.570500
					CHANNELS 3 Xrotation Yrotation Zrotation
					JOINT RightToeBase
					{
						OFFSET -0.728300 -11.045901 13.180700
						CHANNELS 3 Xrotation Yrotation Zrotation
						End Site
						{
							OFFSET 0.000000 17.212593 0.000000
						}
					}
				}
				JOINT RightPantLeg
				{
					OFFSET 0.008142 -16.708982 -3.143700
					CHANNELS 3 Xrotation Yrotation Zrotation
					End Site
					{
						OFFSET 0.605088 24.528715 0.000000
					}
				}
			}
			JOINT Right_Butt
			{
				OFFSET 6.630732 1.326584 -3.183700
				CHANNELS 3 Xrotation Yrotation Zrotation
				End Site
				{
					OFFSET 0.498015 20.188240 0.000000
				}
			}
		}
	}
	JOINT Spine
	{
		OFFSET -0.062400 7.848404 3.918300
		CHANNELS 3 Xrotation Yrotation Zrotation
		JOINT Spine1
		{
			OFFSET -0.072800 11.422302 0.713400
			CHANNELS 3 Xrotation Yrotation Zrotation
			JOINT Spine2
			{
				OFFSET -0.083200 13.054001 -1.931600
				CHANNELS 3 Xrotation Yrotation Zrotation
				JOINT Neck
				{
					OFFSET -0.092200 14.121796 -5.138800
					CHANNELS 3 Xrotation Yrotation Zrotation
					JOINT Head
					{
						OFFSET 0.000200 10.447403 -0.842000
						CHANNELS 3 Xrotation Yrotation Zrotation
						JOINT Visor
						{
							OFFSET 0.457100 25.671204 16.550400
							CHANNELS 3 Xrotation Yrotation Zrotation
							End Site
							{
								OFFSET 0.000000 26.061493 0.000000
							}
						}
						JOINT HairMidA
						{
							OFFSET 0.459400 31.585403 8.437400
							CHANNELS 3 Xrotation Yrotation Zrotation
							End Site
							{
								OFFSET 0.000000 26.061493 0.000000
							}
						}
						JOINT HairMidB
						{
							OFFSET 0.464000 33.309204 -8.389700
							CHANNELS 3 Xrotation Yrotation Zrotation
							End Site
							{
								OFFSET 0.000000 26.061493 0.000000
							}
						}
						JOINT HairMidC
						{
							OFFSET 0.466600 27.991196 -17.375099
							CHANNELS 3 Xrotation Yrotation Zrotation
							End Site
							{
								OFFSET 0.000000 26.061493 0.000000
							}
						}
						JOINT HairMidD
						{
							OFFSET 0.467700 17.888092 -21.169500
							CHANNELS 3 Xrotation Yrotation Zrotation
							End Site
							{
								OFFSET 0.000000 26.061493 0.000000
							}
						}
						JOINT HairMidE
						{
							OFFSET 5.325700 3.514603 -14.369699
							CHANNELS 3 Xrotation Yrotation Zrotation
							End Site
							{
								OFFSET 0.000000 26.061493 0.000000
							}
						}
						JOINT HairMidF
						{
							OFFSET -4.394100 3.514603 -14.372400
							CHANNELS 3 Xrotation Yrotation Zrotation
							End Site
							{
								OFFSET 0.000000 26.061493 0.000000
							}
						}
						JOINT HairLeftA
						{
							OFFSET 15.319900 25.746506 2.623300
							CHANNELS 3 Xrotation Yrotation Zrotation
							End Site
							{
								OFFSET 0.000000 26.061493 0.000000
							}
						}
						JOINT HairLeftB
						{
							OFFSET 12.619500 29.289398 -8.731499
							CHANNELS 3 Xrotation Yrotation Zrotation
							End Site
							{
								OFFSET 0.000000 26.061493 0.000000
							}
						}
						JOINT HairLeftC
						{
							OFFSET 15.714800 15.959900 2.909800
							CHANNELS 3 Xrotation Yrotation Zrotation
							End Site
							{
								OFFSET 0.000000 26.061493 0.000000
							}
						}
						JOINT HairLeftD
						{
							OFFSET 16.101700 18.437408 -7.553200
							CHANNELS 3 Xrotation Yrotation Zrotation
							End Site
							{
								OFFSET 0.000000 26.061493 0.000000
							}
						}
						JOINT HairLeftE
						{
							OFFSET 9.731900 17.915009 -18.316799
							CHANNELS 3 Xrotation Yrotation Zrotation
							End Site
							{
								OFFSET 0.000000 26.061493 0.000000
							}
						}
						JOINT HairLeftF
						{
							OFFSET 11.204300 4.953598 -9.668100
							CHANNELS 3 Xrotation Yrotation Zrotation
							End Site
							{
								OFFSET 0.000000 26.061493 0.000000
							}
						}
						JOINT HairRightA
						{
							OFFSET -14.397900 25.746307 2.615100
							CHANNELS 3 Xrotation Yrotation Zrotation
							End Site
							{
								OFFSET 0.000000 26.061493 0.000000
							}
						}
						JOINT HairRightB
						{
							OFFSET -11.691200 29.289200 -8.738199
							CHANNELS 3 Xrotation Yrotation Zrotation
							End Site
							{
								OFFSET 0.000000 26.061493 0.000000
							}
						}
						JOINT HairRightC
						{
							OFFSET -14.792900 15.959702 2.901400
							CHANNELS 3 Xrotation Yrotation Zrotation
							End Site
							{
								OFFSET 0.000000 26.061493 0.000000
							}
						}
						JOINT HairRightD
						{
							OFFSET -15.174000 18.437195 -7.561900
							CHANNELS 3 Xrotation Yrotation Zrotation
							End Site
							{
								OFFSET 0.000000 26.061493 0.000000
							}
						}
						JOINT HairRightE
						{
							OFFSET -8.798200 17.914902 -18.322001
							CHANNELS 3 Xrotation Yrotation Zrotation
							End Site
							{
								OFFSET 0.000000 26.061493 0.000000
							}
						}
						JOINT HairRightF
						{
							OFFSET -10.275200 4.953506 -9.674099
							CHANNELS 3 Xrotation Yrotation Zrotation
							End Site
							{
								OFFSET 0.000000 26.061493 0.000000
							}
						}
					}
				}
				JOINT LeftShoulder
				{
					OFFSET 5.133500 7.341202 -1.867600
					CHANNELS 3 Xrotation Yrotation Zrotation
					JOINT LeftArm
					{
						OFFSET 8.072663 0.936867 -2.176600
						CHANNELS 3 Xrotation Yrotation Zrotation
						JOINT LeftForeArm
						{
							OFFSET 31.271999 0.000000 0.000000
							CHANNELS 3 Xrotation Yrotation Zrotation
							JOINT LeftHand
							{
								OFFSET 31.771030 0.000000 0.000000
								CHANNELS 3 Xrotation Yrotation Zrotation
								JOINT LeftHandThumb1
								{
									OFFSET 2.886520 -2.557846 4.416640
									CHANNELS 3 Xrotation Yrotation Zrotation
									JOINT LeftHandThumb2
									{
										OFFSET 2.371025 -1.368912 1.368911
										CHANNELS 3 Xrotation Yrotation Zrotation
										JOINT LeftHandThumb3
										{
											OFFSET 2.243378 -1.295212 1.295213
											CHANNELS 3 Xrotation Yrotation Zrotation
											End Site
											{
												OFFSET -0.332611 2.876945 0.020015
											}
										}
									}
								}
								JOINT LeftHandIndex1
								{
									OFFSET 8.568985 -0.641945 3.119977
									CHANNELS 3 Xrotation Yrotation Zrotation
									JOINT LeftHandIndex2
									{
										OFFSET 3.348503 0.000000 0.000000
										CHANNELS 3 Xrotation Yrotation Zrotation
										JOINT LeftHandIndex3
										{
											OFFSET 3.314552 0.000000 0.000000
											CHANNELS 3 Xrotation Yrotation Zrotation
											End Site
											{
												OFFSET -1.032898 3.075485 0.678796
											}
										}
									}
								}
								JOINT LeftHandMiddle1
								{
									OFFSET 8.124603 0.000000 0.000000
									CHANNELS 3 Xrotation Yrotation Zrotation
									JOINT LeftHandMiddle2
									{
										OFFSET 4.166275 0.000000 0.000000
										CHANNELS 3 Xrotation Yrotation Zrotation
										JOINT LeftHandMiddle3
										{
											OFFSET 3.018135 0.000000 0.000000
											CHANNELS 3 Xrotation Yrotation Zrotation
											End Site
											{
												OFFSET -1.032700 2.767982 0.617226
											}
										}
									}
								}
								JOINT LeftHandRing1
								{
									OFFSET 8.571686 -0.031357 -2.884048
									CHANNELS 3 Xrotation Yrotation Zrotation
									JOINT LeftHandRing2
									{
										OFFSET 3.671181 0.000000 0.000000
										CHANNELS 3 Xrotation Yrotation Zrotation
										JOINT LeftHandRing3
										{
											OFFSET 2.728851 0.000000 0.000000
											CHANNELS 3 Xrotation Yrotation Zrotation
											End Site
											{
												OFFSET -0.815796 2.539223 0.577389
											}
										}
									}
								}
								JOINT LeftHandPinky1
								{
									OFFSET 7.854515 -0.675232 -5.213020
									CHANNELS 3 Xrotation Yrotation Zrotation
									JOINT LeftHandPinky2
									{
										OFFSET 3.068596 0.000000 0.000000
										CHANNELS 3 Xrotation Yrotation Zrotation
										JOINT LeftHandPinky3
										{
											OFFSET 2.396042 0.000000 0.000000
											CHANNELS 3 Xrotation Yrotation Zrotation
											End Site
											{
												OFFSET -0.524597 2.267998 0.567429
											}
										}
									}
								}
							}
							JOINT LeftSleeve
							{
								OFFSET 19.684509 -0.200119 0.476146
								CHANNELS 3 Xrotation Yrotation Zrotation
								End Site
								{
									OFFSET -0.031017 25.731133 -0.002868
								}
							}
						}
					}
				}
				JOINT RightShoulder
				{
					OFFSET -4.395900 7.341202 -1.870200
					CHANNELS 3 Xrotation Yrotation Zrotation
					JOINT RightArm
					{
						OFFSET -8.071453 0.936867 -2.181100
						CHANNELS 3 Xrotation Yrotation Zrotation
						JOINT RightForeArm
						{
							OFFSET -31.272011 0.000000 0.000000
							CHANNELS 3 Xrotation Yrotation Zrotation
							JOINT RightHand
							{
								OFFSET -31.771019 0.000000 0.000000
								CHANNELS 3 Xrotation Yrotation Zrotation
								JOINT RightHandThumb1
								{
									OFFSET -2.886520 -2.557808 4.416626
									CHANNELS 3 Xrotation Yrotation Zrotation
									JOINT RightHandThumb2
									{
										OFFSET -2.371056 -1.368927 1.368928
										CHANNELS 3 Xrotation Yrotation Zrotation
										JOINT RightHandThumb3
										{
											OFFSET -2.243362 -1.295204 1.295206
											CHANNELS 3 Xrotation Yrotation Zrotation
											End Site
											{
												OFFSET 0.332642 2.876938 0.020047
											}
										}
									}
								}
								JOINT RightHandIndex1
								{
									OFFSET -8.568993 -0.641953 3.120017
									CHANNELS 3 Xrotation Yrotation Zrotation
									JOINT RightHandIndex2
									{
										OFFSET -3.348518 0.000000 0.000000
										CHANNELS 3 Xrotation Yrotation Zrotation
										JOINT RightHandIndex3
										{
											OFFSET -3.314552 0.000000 0.000000
											CHANNELS 3 Xrotation Yrotation Zrotation
											End Site
											{
												OFFSET 1.032898 3.075478 0.678804
											}
										}
									}
								}
								JOINT RightHandMiddle1
								{
									OFFSET -8.124588 0.000000 0.000000
									CHANNELS 3 Xrotation Yrotation Zrotation
									JOINT RightHandMiddle2
									{
										OFFSET -4.166275 0.000000 0.000000
										CHANNELS 3 Xrotation Yrotation Zrotation
										JOINT RightHandMiddle3
										{
											OFFSET -3.018097 0.000000 0.000000
											CHANNELS 3 Xrotation Yrotation Zrotation
											End Site
											{
												OFFSET 1.032700 2.767937 0.617197
											}
										}
									}
								}
								JOINT RightHandRing1
								{
									OFFSET -8.571747 -0.031349 -2.884061
									CHANNELS 3 Xrotation Yrotation Zrotation
									JOINT RightHandRing2
									{
										OFFSET -3.671204 0.000000 0.000000
										CHANNELS 3 Xrotation Yrotation Zrotation
										JOINT RightHandRing3
										{
											OFFSET -2.728874 0.000000 0.000000
											CHANNELS 3 Xrotation Yrotation Zrotation
											End Site
											{
												OFFSET 0.815804 2.539261 0.577413
											}
										}
									}
								}
								JOINT RightHandPinky1
								{
									OFFSET -7.854561 -0.675247 -5.212970
									CHANNELS 3 Xrotation Yrotation Zrotation
									JOINT RightHandPinky2
									{
										OFFSET -3.068550 0.000000 0.000000
										CHANNELS 3 Xrotation Yrotation Zrotation
										JOINT RightHandPinky3
										{
											OFFSET -2.395981 0.000000 0.000000
											CHANNELS 3 Xrotation Yrotation Zrotation
											End Site
											{
												OFFSET 0.524605 2.267952 0.567413
											}
										}
									}
								}
							}
							JOINT RightSleeve
							{
								OFFSET -19.684753 -0.200165 0.476065
								CHANNELS 3 Xrotation Yrotation Zrotation
								End Site
								{
									OFFSET 0.031342 25.731255 -0.002917
								}
							}
						}
					}
				}
				JOINT Hood
				{
					OFFSET 0.369700 14.447800 -5.317800
					CHANNELS 3 Xrotation Yrotation Zrotation
					JOINT Hood1
					{
						OFFSET 0.001700 -5.553802 -5.895100
						CHANNELS 3 Xrotation Yrotation Zrotation
						JOINT Hood2
						{
							OFFSET -0.000200 -8.380501 0.763600
							CHANNELS 3 Xrotation Yrotation Zrotation
							End Site
							{
								OFFSET 0.000000 8.415215 0.000000
							}
						}
					}
				}
				JOINT Left_Breast
				{
					OFFSET 5.682500 3.120102 3.188800
					CHANNELS 3 Xrotation Yrotation Zrotation
					End Site
					{
						OFFSET 0.000000 10.528564 0.000000
					}
				}
				JOINT Right_Breast
				{
					OFFSET -4.947600 3.120102 3.185900
					CHANNELS 3 Xrotation Yrotation Zrotation
					End Site
					{
						OFFSET 0.000000 10.528564 0.000000
					}
				}
				JOINT Whistle
				{
					OFFSET 0.368200 11.471298 0.095400
					CHANNELS 3 Xrotation Yrotation Zrotation
					JOINT Whistle1
					{
						OFFSET -0.002000 -6.349899 7.479800
						CHANNELS 3 Xrotation Yrotation Zrotation
						JOINT Whistle2
						{
							OFFSET -0.001300 -8.217598 4.717600
							CHANNELS 3 Xrotation Yrotation Zrotation
							End Site
							{
								OFFSET 0.000000 9.475479 0.000000
							}
						}
					}
				}
			}
		}
		JOINT Belly
		{
			OFFSET 0.212400 1.593002 3.163700
			CHANNELS 3 Xrotation Yrotation Zrotation
			End Site
			{
				OFFSET 0.000000 7.496635 0.000000
			}
		}
	}
	JOINT FitGrandmaFacialAnim_Joint
	{
		OFFSET 1.150000 -86.211197 -1.220100
		CHANNELS 3 Xrotation Yrotation Zrotation
		End Site
		{
			OFFSET 0.000000 31.666618 0.000000
		}
	}
}
MOTION
Frames: 4
Frame Time: 0.016667
-1.411643 73.986008 0.701335 -5.065867 -42.453755 0.354815 -0.000000 -0.000000 -0.000000 -29.912591 7.891336 18.562979 60.356408 -7.606669 4.291150 -27.975048 -7.407598 -15.176288 -0.000000 -0.000002 0.000000 0.000001 0.000002 0.000001 0.000002 -0.000001 -0.000000 -20.135959 -12.829772 -28.666837 60.540174 -8.639501 -7.787312 -32.078318 -7.963003 23.092631 -0.000000 -0.000001 0.000000 -0.000001 -0.000001 -0.000000 0.000003 -0.000002 0.000003 9.465937 7.114600 -1.726062 2.187717 0.989894 -0.914785 2.202829 0.982779 -0.893562 0.084655 13.220550 4.538677 8.920921 20.138133 -4.130231 0.000001 0.000000 0.000001 0.000001 0.000000 0.000001 0.000001 0.000000 0.000001 0.000001 0.000000 0.000001 0.000001 0.000000 0.000001 0.000001 0.000000 0.000001 0.000001 0.000000 0.000001 0.000001 0.000000 0.000001 0.000001 0.000000 0.000001 0.000001 0.000000 0.000001 0.000001 0.000000 0.000001 0.000001 0.000000 0.000001 0.000001 0.000000 0.000001 0.000001 0.000000 0.000001 0.000001 0.000000 0.000001 0.000001 0.000000 0.000001 0.000001 0.000000 0.000001 0.000001 0.000000 0.000001 0.000001 0.000000 0.000001 1.117177 3.546357 -8.633308 -53.487024 4.935518 -51.502990 0.000165 -106.358067 0.000158 1.988594 -7.706152 -15.869226 -6.141229 -11.690793 -6.761712 9.914107 42.595515 3.409885 0.000001 -0.000000 -0.000000 0.255319 3.378202 -45.814354 5.654072 5.847731 -88.067469 0.000001 0.000001 -0.000003 -0.461475 3.841587 -39.722690 6.450726 5.820339 -95.892844 0.000002 -0.000000 -0.000001 0.469729 4.966839 -39.799451 8.181079 5.368644 -113.502998 -0.000002 -0.000001 0.000004 -3.762434 9.063699 -45.253828 5.342501 5.828992 -85.005297 -0.000001 -0.000002 -0.000000 0.000000 -0.000001 -0.000001 3.036126 13.027198 -5.371407 -48.713732 27.172830 83.457091 0.000175 105.988314 -0.000184 -8.345397 17.548093 8.775701 -7.341072 13.749664 7.412313 9.855757 -44.489096 -3.903262 0.000002 -0.000004 0.000001 -0.124375 -2.384778 45.108874 4.500611 -4.654575 88.071178 -0.000001 0.000001 0.000003 -0.761620 -2.932895 39.031055 5.133884 -4.632743 95.881683 0.000002 0.000002 0.000001 0.154764 -4.068822 39.122671 6.509729 -4.273605 113.462857 -0.000000 -0.000004 -0.000000 -4.198868 -8.025537 44.637769 4.252893 -4.639609 85.014818 -0.000002 -0.000001 -0.000000 -0.000002 0.000000 -0.000001 0.000001 0.000003 -0.000000 0.000001 0.000003 -0.000000 0.000001 0.000003 -0.000000 0.000001 0.000003 -0.000000 0.000001 0.000003 -0.000000 0.000001 0.000003 -0.000000 -0.000000 0.000001 -0.000000 -0.000000 0.000001 -0.000000 0.000000 0.000004 -0.000000 -0.000000 -0.000000 -0.000000 
-1.409779 74.007217 0.731930 -4.995301 -42.441925 0.305961 -0.000000 0.000001 0.000000 -29.966782 7.874540 18.760107 60.315392 -7.445430 4.108939 -27.988606 -7.592851 -15.178842 0.000000 -0.000003 0.000000 -0.000001 -0.000002 0.000004 -0.000002 -0.000000 -0.000000 -20.212316 -13.069225 -28.709068 60.440993 -8.389469 -7.753112 -32.061857 -7.927069 22.933528 -0.000000 -0.000001 -0.000000 0.000002 -0.000001 0.000001 0.000001 0.000003 -0.000001 9.448320 7.159823 -1.740651 2.175733 1.007914 -0.914783 2.190584 1.000774 -0.893561 0.049150 13.241672 4.506403 8.795703 20.178662 -4.038383 0.000001 -0.000000 -0.000000 0.000001 -0.000000 -0.000000 0.000001 -0.000000 -0.000000 0.000001 -0.000000 -0.000000 0.000001 -0.000000 -0.000000 0.000001 -0.000000 -0.000000 0.000001 -0.000000 -0.000000 0.000001 -0.000000 -0.000000 0.000001 -0.000000 -0.000000 0.000001 -0.000000 -0.000000 0.000001 -0.000000 -0.000000 0.000001 -0.000000 -0.000000 0.000001 -0.000000 -0.000000 0.000001 -0.000000 -0.000000 0.000001 -0.000000 -0.000000 0.000001 -0.000000 -0.000000 0.000001 -0.000000 -0.000000 0.000001 -0.000000 -0.000000 0.000001 -0.000000 -0.000000 1.060111 3.401052 -8.204986 -53.252618 4.575419 -50.958931 0.000282 -106.452268 0.000287 2.080119 -7.637609 -15.690638 -6.141233 -11.690791 -6.761710 9.914099 42.595512 3.409884 -0.000001 0.000002 0.000003 0.255319 3.378205 -45.814358 5.654075 5.847731 -88.067469 0.000003 -0.000000 0.000000 -0.461473 3.841587 -39.722693 6.450726 5.820335 -95.892844 -0.000001 -0.000001 0.000000 0.469730 4.966839 -39.799451 8.181077 5.368643 -113.503004 0.000003 -0.000001 -0.000000 -3.762432 9.063695 -45.253828 5.342504 5.828991 -85.005297 -0.000000 0.000003 0.000001 0.000001 -0.000001 0.000000 2.992698 12.851422 -5.316451 -49.165669 27.692722 83.232603 0.000248 105.878013 -0.000247 -8.322249 17.530722 8.373437 -7.341072 13.749667 7.412313 9.855756 -44.489096 -3.903253 0.000001 -0.000000 0.000002 -0.124374 -2.384779 45.108885 4.500609 -4.654576 88.071178 -0.000001 0.000000 0.000003 -0.761619 -2.932894 39.031051 5.133886 -4.632744 95.881683 0.000001 0.000001 -0.000003 0.154768 -4.068818 39.122675 6.509729 -4.273605 113.462857 0.000002 -0.000000 0.000001 -4.198864 -8.025541 44.637779 4.252898 -4.639607 85.014818 -0.000001 0.000003 0.000001 -0.000001 -0.000004 0.000001 0.000000 0.000001 -0.000000 0.000000 0.000001 -0.000000 0.000000 0.000001 -0.000000 0.000000 0.000001 -0.000000 0.000000 0.000001 -0.000000 0.000000 0.000001 -0.000000 -0.000000 0.000001 -0.000000 -0.000000 0.000001 -0.000000 -0.000000 0.000001 -0.000000 -0.000000 0.000001 0.000000 
-1.412907 74.036369 0.777018 -4.920528 -42.461722 0.261753 -0.000000 -0.000003 -0.000000 -30.012958 7.893345 18.980040 60.285176 -7.537601 3.933093 -27.983073 -7.668263 -15.067133 0.000000 -0.000001 0.000000 0.000003 -0.000002 0.000001 -0.000001 0.000001 -0.000001 -20.235870 -13.219638 -28.758016 60.326758 -8.154918 -7.626086 -32.041247 -7.881904 22.740852 0.000000 -0.000001 0.000000 0.000000 -0.000001 0.000003 0.000000 -0.000002 0.000002 9.422656 7.175978 -1.759903 2.160458 1.014514 -0.917777 2.175228 1.007278 -0.896828 -0.002262 13.274984 4.469523 8.607457 20.275410 -3.937013 0.000001 0.000000 0.000000 0.000001 0.000000 0.000000 0.000001 0.000000 0.000000 0.000001 0.000000 0.000000 0.000001 0.000000 0.000000 0.000001 0.000000 0.000000 0.000001 0.000000 0.000000 0.000001 0.000000 0.000000 0.000001 0.000000 0.000000 0.000001 0.000000 0.000000 0.000001 0.000000 0.000000 0.000001 0.000000 0.000000 0.000001 0.000000 0.000000 0.000001 0.000000 0.000000 0.000001 0.000000 0.000000 0.000001 0.000000 0.000000 0.000001 0.000000 0.000000 0.000001 0.000000 0.000000 0.000001 0.000000 0.000000 1.001846 3.254865 -7.754998 -53.008965 4.373917 -50.549284 0.000010 -106.685636 0.000016 2.320280 -7.487237 -15.637243 -6.141233 -11.690788 -6.761711 9.914101 42.595512 3.409883 -0.000000 -0.000001 0.000002 0.255318 3.378210 -45.814365 5.654072 5.847730 -88.067462 0.000001 0.000001 0.000001 -0.461474 3.841592 -39.722693 6.450728 5.820338 -95.892837 0.000000 0.000001 -0.000001 0.469728 4.966844 -39.799447 8.181078 5.368647 -113.503004 -0.000002 0.000001 -0.000001 -3.762436 9.063701 -45.253835 5.342503 5.828991 -85.005297 0.000001 -0.000000 0.000000 0.000001 0.000000 -0.000002 2.949114 12.677379 -5.252451 -49.612691 28.281037 83.025867 0.000012 105.788688 0.000001 -8.265617 17.517729 7.916548 -7.341074 13.749667 7.412309 9.855751 -44.489100 -3.903267 -0.000002 0.000002 -0.000001 -0.124376 -2.384776 45.108881 4.500612 -4.654574 88.071184 -0.000002 0.000001 0.000003 -0.761620 -2.932894 39.031048 5.133884 -4.632744 95.881683 -0.000000 -0.000000 -0.000002 0.154766 -4.068821 39.122668 6.509730 -4.273604 113.462863 0.000003 -0.000001 0.000003 -4.198867 -8.025537 44.637776 4.252896 -4.639608 85.014811 0.000004 0.000002 0.000001 -0.000000 -0.000002 0.000002 -0.000001 0.000002 -0.000000 -0.000001 0.000002 -0.000000 -0.000001 0.000002 -0.000000 -0.000001 0.000002 -0.000000 -0.000001 0.000002 -0.000000 -0.000001 0.000002 -0.000000 -0.000000 -0.000001 0.000000 -0.000000 -0.000001 0.000000 0.000000 0.000001 0.000000 -0.000000 -0.000003 -0.000000 
-1.417644 74.075684 0.839186 -4.838715 -42.530311 0.230053 -0.000000 -0.000001 -0.000000 -30.025781 7.967693 19.200584 60.236757 -7.743520 3.754227 -27.982583 -7.629752 -14.888129 0.000000 -0.000001 0.000000 -0.000002 -0.000002 0.000004 -0.000003 -0.000001 -0.000000 -20.212106 -13.262843 -28.815953 60.198446 -7.830499 -7.408226 -32.003603 -7.913870 22.489882 -0.000000 0.000001 -0.000000 0.000001 0.000001 0.000003 0.000001 -0.000001 0.000001 9.387292 7.167643 -1.787470 2.140905 1.011709 -0.925597 2.155735 1.004236 -0.904947 -0.072028 13.322211 4.429951 8.331895 20.440830 -3.819019 0.000000 -0.000000 -0.000000 0.000000 -0.000000 -0.000000 0.000000 -0.000000 -0.000000 0.000000 -0.000000 -0.000000 0.000000 -0.000000 -0.000000 0.000000 -0.000000 -0.000000 0.000000 -0.000000 -0.000000 0.000000 -0.000000 -0.000000 0.000000 -0.000000 -0.000000 0.000000 -0.000000 -0.000000 0.000000 -0.000000 -0.000000 0.000000 -0.000000 -0.000000 0.000000 -0.000000 -0.000000 0.000000 -0.000000 -0.000000 0.000000 -0.000000 -0.000000 0.000000 -0.000000 -0.000000 0.000000 -0.000000 -0.000000 0.000000 -0.000000 -0.000000 0.000000 -0.000000 -0.000000 0.942412 3.109348 -7.280550 -52.751832 4.313182 -50.243418 0.000028 -107.038770 0.000037 2.688489 -7.265127 -15.676423 -6.141232 -11.690791 -6.761710 9.914099 42.595512 3.409884 -0.000002 -0.000001 -0.000002 0.255318 3.378207 -45.814365 5.654073 5.847730 -88.067469 -0.000001 -0.000001 0.000000 -0.461474 3.841590 -39.722693 6.450726 5.820338 -95.892844 -0.000000 -0.000003 -0.000000 0.469728 4.966844 -39.799444 8.181078 5.368643 -113.503004 0.000001 -0.000003 -0.000001 -3.762434 9.063699 -45.253832 5.342500 5.828993 -85.005297 -0.000001 0.000000 -0.000001 -0.000000 0.000001 0.000001 2.906330 12.509033 -5.180290 -50.050636 28.941390 82.820811 0.000207 105.714260 -0.000212 -8.194000 17.536253 7.412603 -7.341077 13.749667 7.412313 9.855753 -44.489093 -3.903261 0.000002 0.000002 -0.000001 -0.124376 -2.384775 45.108885 4.500613 -4.654571 88.071184 -0.000001 -0.000000 0.000003 -0.761621 -2.932895 39.031061 5.133883 -4.632743 95.881683 -0.000000 -0.000003 -0.000001 0.154767 -4.068820 39.122675 6.509731 -4.273603 113.462857 0.000001 -0.000003 0.000002 -4.198868 -8.025541 44.637776 4.252900 -4.639606 85.014818 0.000001 0.000000 0.000001 0.000001 -0.000003 -0.000002 -0.000000 0.000000 0.000000 -0.000000 0.000000 0.000000 -0.000000 0.000000 0.000000 -0.000000 0.000000 0.000000 -0.000000 0.000000 0.000000 -0.000000 0.000000 0.000001 -0.000000 -0.000000 0.000000 -0.000000 -0.000000 0.000000 0.000001 0.000001 -0.000000 -0.000000 -0.000001 -0.000000 
